<?xml version="1.0" encoding="utf-8"?>
<!-- Generator: Adobe Illustrator 26.2.1, SVG Export Plug-In . SVG Version: 6.00 Build 0)  -->
<svg version="1.1" id="レイヤー_1" xmlns="http://www.w3.org/2000/svg" xmlns:xlink="http://www.w3.org/1999/xlink" x="0px"
	 y="0px" viewBox="0 0 248.1 44.2" style="enable-background:new 0 0 248.1 44.2;" xml:space="preserve">
<style type="text/css">
	.st0{fill:#E60012;}
</style>
<g>
	<path d="M183.2,11l1,3.6h2.4l-0.8-2.9l3.4,0l0.8,3c0.2,1,0,2-1.4,2.3h-3.8l3.8,13.4h1.4l0,2.6h-3.1c-0.7-0.1-1.3-0.9-1.4-1.5
		c-0.3-1-4.2-14.4-4.2-14.4h-17v-2.5h16.3l-1-3.6H183.2z"/>
	<path d="M148.7,11l-0.3,3.6h3V11h3.3v3.6h5.5v2.5h-5.5v2.6h6.3v2.4H158c0,0,1.3,6.4,3.8,11h-3.3c-1.6-1.5-3.7-9.7-3.7-9.7v9.7h-3.3
		V23l-3.4,10.1h-3.3l3.6-11h-3.2v-2.4h6.2v-2.6h-4.6c-1.1,0-1.6-0.3-1.6-1.3l0.5-4.7H148.7z"/>
	<path d="M125.8,11.3c0.7,0.7,0.7,1.1,1,2.1c0.3,1.2,1.9,3.6,3.4,4.4l0,3.1c-3.7-1.8-5.2-4.7-6.4-7.6h-6.7V11h6.7
		C124.9,11,125.3,11,125.8,11.3"/>
	<polygon points="111,11 111,14.7 113.8,14.7 113.8,17.1 111,17.1 111,18.5 113.8,21.2 113.8,24.8 111,23 111,33.1 107.7,33.1 
		107.7,23.2 104.8,27.1 104.8,22.1 107.7,17.1 104.8,17.1 104.8,14.7 107.7,14.7 107.7,11 	"/>
	<polygon points="141.6,11 141.6,14.7 144.4,14.7 144.4,17.1 141.6,17.1 141.6,18.5 144.4,21.2 144.4,24.8 141.6,23 141.6,33.1 
		138.3,33.1 138.3,23.2 135.4,27.1 135.4,22.1 138.3,17.1 135.4,17.1 135.4,14.7 138.3,14.7 138.3,11 	"/>
	<path d="M96.7,24.1h-3.2V23h3.2V24.1z M96.7,20.5h-3.2v-1.2h3.2V20.5z M90.2,24.1H87V23h3.2V24.1z M90.2,20.5H87v-1.2h3.2V20.5z
		 M90.2,16.9H87v-1.3h3.2V16.9z M100.1,22.9h1.1v-2.4h-1.1v-2.3c-0.1-0.8-0.8-1.3-1.8-1.3h-4.9v-1.3h7.9v-2.3h-6.5l1.2-2.2h-3.6
		l-1.3,2.2h-5L84.7,11H81l1.2,2.2h-6.3v2.3h7.7l0,1.3h-6.3v2.4h6.3v1.2l-7.7,0v2.4h7.7l0,1.2h-6.3v2.5h2.1l-3.5,6.4h3.5l3.6-6.4h0.6
		v6.4H87v-6.4h3.2v6.4h3.2v-6.4h0.5l3.8,6.4h3.6l-3.6-6.4h1c0.9,0,1.4-0.6,1.6-1.5C100.2,25.6,100.1,22.9,100.1,22.9"/>
	<path d="M118.7,14.7c-0.4,4.4-1.6,6.3-4.4,6.8v-3.2c0.5-0.2,1.2,0.2,1.5-3.7H118.7z"/>
	<path d="M122,18.9l-4.3,11.3h9l-2.9-8.5h3.3l3.1,8.5c0.7,1.8,0.3,2.8-0.8,2.8h-13.3c-0.5-0.1-0.9-0.3-1.2-0.6
		c-0.4-0.6-0.7-1.3-0.5-2.1c0.2-0.5,3.6-9.9,4.1-11.4H122z"/>
	<path d="M180.6,19.8l0,2.3h-5.8v8c0,0,2.7,0,6.9-0.5v2.7c-0.7,0.4-14.5,1-17.2,0.7l0-2.7c4.2,0.1,6.9-0.1,6.9-0.1l0-8.3h-6.3v-2.3
		L180.6,19.8z"/>
	<path d="M219.1,21.4v2.3h-17.7l-2.2,6.8h14.2l-1.5-5.6h3.1l1.8,6c0.2,1.1-0.1,2.2-1.9,2.2h-16.1c-1.7,0-3-0.2-2.9-2.6l2.1-6.8
		l-4.3,0l0-2.3H219.1z"/>
	<path d="M198,17c2-1.1,3.9-2.4,5.2-3.5l6.5,0c1.7,1.3,3.6,2.5,5.2,3.5H198z M219.1,15.6c-1.8-0.5-6.3-3.6-7.4-4.5h-10.3
		c-0.9,0.8-6,4-7.8,4.4l0,3.6c0.7-0.3,1.4-0.6,2.2-1v1.2h21V18c1,0.5,1.8,0.9,2.2,1V15.6z"/>
	<polygon points="241.5,30.5 241.5,19.3 247.4,19.3 247.4,16.9 241.5,16.9 241.5,11 238,11 238,16.9 232,16.9 232,19.3 238,19.3 
		238,30.5 231.3,30.5 231.3,33.1 248.1,33.1 248.1,30.5 	"/>
	<path d="M229,22.8c1.1-1.5,2.3-3.9,2.3-6v-2.2h-2.6V11h-3.4v3.6h-2.8v2.2h6.2c-0.2,1.7-2.5,5.9-6.2,8.1v3.5c1.5-0.8,1.9-1.1,2.7-2
		c0,0,0,6.7,0,6.7h3.4v-6.8c0.6,0.4,1.2,0.9,2.6,1.3v-2.8C231.3,24.7,229.5,23.6,229,22.8"/>
</g>
<g>
	<path class="st0" d="M32.7,44.2L0,21.9L32.5,0l33,22.2L32.7,44.2z M2.2,21.9l30.6,20.8l30.6-20.5L32.5,1.5L2.2,21.9z"/>
	<polygon class="st0" points="22.8,14.1 22.8,20.1 25.8,17.6 25.8,14.1 33.6,14.1 33.6,17.6 32.5,17.6 28.6,21.9 32.5,26.5 
		33.6,26.5 33.6,30 27.8,30 22.8,24.2 22.8,30 15.8,30 15.8,26.5 17.1,26.5 17.1,17.6 15.8,17.6 15.8,14.1 	"/>
	<path class="st0" d="M43.6,14.5l1.7,0.7v-1.1h4.2v5.7l-4.5,0c-0.3-0.9-0.9-1.4-1.7-1.7c-1-0.2-2.1-0.1-2.7,0.6
		c-1.4,1.5-1.5,4.5-0.8,6.4c0.5,1,1.3,1.9,2.6,1.8c1.3-0.1,2-0.8,2.4-1.8l0-0.9h-1.8v-3.5h7.9v3.5h-1.5V30h-4.2l0-0.5
		c-1,0.5-1.8,1.1-3,1.2c-3.7,0.2-6.9-1.4-8.3-4.2l-0.6-1.8c-0.6-2.9,0-5.6,1.5-7.5C36.6,14.9,40.1,13.3,43.6,14.5"/>
</g>
</svg>
