<svg xmlns="http://www.w3.org/2000/svg" x="0px" y="0px" width="682" height="30" viewBox="0 0 682 30"><defs><style>.cls-1{fill:#231815;}.cls-2{fill:#b5dedb;}.cls-3{fill:none;stroke:#231815;stroke-miterlimit:10;stroke-width:0.7px;}</style></defs><title>en_02</title><g id="レイヤー_2" data-name="レイヤー 2"><g id="レイヤー_1-2" data-name="レイヤー 1"><path class="cls-1" d="M396.3,19.44l-.07-.08c.08-.64.08-.64.14-.64a.94.94,0,0,0,.46-.14.72.72,0,0,0,.29-.31,1.59,1.59,0,0,0,.12-.51c0-.2,0-.46,0-.77V8.57c0-.31,0-.56,0-.77a1.2,1.2,0,0,0-.12-.51.78.78,0,0,0-.28-.32,2,2,0,0,0-.54-.21V6.1l.07-.07,8.89.07.07.08-.07,3-.08.08L404,9.22a6.24,6.24,0,0,0-.5-1.26,1.78,1.78,0,0,0-.5-.52,1.91,1.91,0,0,0-1-.19h-1.89l-.07,4.62,1.19.06a1.34,1.34,0,0,0,.62-.12,1,1,0,0,0,.37-.4,3.5,3.5,0,0,0,.28-.88h1l.07.07-.07,3.9-.08.07-1-.07a3.46,3.46,0,0,0-.28-.87,1,1,0,0,0-.36-.42,1.3,1.3,0,0,0-.63-.12h-1.12l-.07,5.13,2,.07a2.79,2.79,0,0,0,.53,0,1.16,1.16,0,0,0,.38-.15,1.49,1.49,0,0,0,.33-.3,1.91,1.91,0,0,0,.28-.4,4.37,4.37,0,0,0,.26-.56,8.61,8.61,0,0,0,.29-1h1.18l.07.07-.17,3.43-.07.07Z"/><path class="cls-1" d="M408.18,19.44l-.07-.08.07-.57a1.17,1.17,0,0,0,.6-.33,1.2,1.2,0,0,0,.22-.55,9,9,0,0,0,.06-1.28v-4c0-.48,0-.84,0-1.07a1.77,1.77,0,0,0-.11-.55.74.74,0,0,0-.26-.34,1.45,1.45,0,0,0-.61-.23V9.74l.07-.06h3.47l.07.08-.12,1.33.12,0a6.41,6.41,0,0,1,1-.85,3.7,3.7,0,0,1,.89-.49,2.7,2.7,0,0,1,1-.18,2.93,2.93,0,0,1,1.23.23,2,2,0,0,1,.79.67,3,3,0,0,1,.44,1.07,8.07,8.07,0,0,1,.13,1.48v3.58c0,.28,0,.55,0,.8a2.91,2.91,0,0,0,.07.6,1,1,0,0,0,.15.37.87.87,0,0,0,.26.24,1.75,1.75,0,0,0,.41.16v.59l-.07.06h-4.31l-.08-.08.07-.57a1.07,1.07,0,0,0,.58-.32,1.15,1.15,0,0,0,.22-.56,9.12,9.12,0,0,0,.06-1.28V14q0-.69,0-1.14a5.57,5.57,0,0,0-.09-.73,1.53,1.53,0,0,0-.16-.47,1.25,1.25,0,0,0-.23-.31.75.75,0,0,0-.28-.18,1.25,1.25,0,0,0-.42-.06,1.41,1.41,0,0,0-.71.23,2,2,0,0,0-.62.63,1.69,1.69,0,0,0-.25.87v3.76a11.7,11.7,0,0,0,.05,1.29,1.15,1.15,0,0,0,.22.56,1,1,0,0,0,.59.32v.66l-.08.06Z"/><path class="cls-1" d="M420.63,19.44l-.07-.08.07-.57a.95.95,0,0,0,.82-.88,8.93,8.93,0,0,0,.06-1.28v-4c0-.48,0-.84,0-1.07a1.83,1.83,0,0,0-.11-.55.74.74,0,0,0-.26-.34,1.58,1.58,0,0,0-.61-.23V9.74l.07-.06h3.47l.07.08-.12,1.4.13,0A4.2,4.2,0,0,1,425.46,10,3.15,3.15,0,0,1,427,9.59a5.29,5.29,0,0,1,1.16.13v2.7l-.07.07-1.57-.07a2.27,2.27,0,0,0-.4-.87.81.81,0,0,0-.66-.3.88.88,0,0,0-.43.13,1.52,1.52,0,0,0-.44.37,1.32,1.32,0,0,0-.29.49,1.72,1.72,0,0,0-.11.5,7,7,0,0,0,0,.76v3.12a9.37,9.37,0,0,0,.06,1.3.94.94,0,0,0,.89.87l.06.08-.05.51-.07.06Z"/><path class="cls-1" d="M430.44,19.44l-.07-.08.07-.57a.95.95,0,0,0,.83-.88,9,9,0,0,0,.06-1.28V12.08a5.5,5.5,0,0,0,0-.77,1.18,1.18,0,0,0-.15-.46.74.74,0,0,0-.31-.27,2.1,2.1,0,0,0-.5-.16V9.74l.07-.06h3.54l.08.07L434,16.62c0,.36,0,.64,0,.84s0,.35,0,.46a2,2,0,0,0,.08.29,1,1,0,0,0,.13.23.63.63,0,0,0,.23.19,1.59,1.59,0,0,0,.41.16v.59l-.08.06Zm1-11.19-.08-.08.07-2.32.08-.07,2.4.07.08.07-.07,2.26-.08.07Z"/><path class="cls-1" d="M441.62,19.6a3.66,3.66,0,0,1-3-1.25,5.52,5.52,0,0,1-1-3.62,6.43,6.43,0,0,1,.56-2.77,4,4,0,0,1,1.62-1.77,4.83,4.83,0,0,1,2.42-.6,10.14,10.14,0,0,1,1.46.11A8.12,8.12,0,0,1,445,10v2.36l-.08.07-1.72-.07-.07-.07a2.63,2.63,0,0,0-.33-1.27.87.87,0,0,0-.77-.42,1.24,1.24,0,0,0-.64.18,1.55,1.55,0,0,0-.53.63,4.33,4.33,0,0,0-.36,1.19,10.82,10.82,0,0,0-.14,1.89,8.08,8.08,0,0,0,.2,1.92,2.5,2.5,0,0,0,.64,1.21,1.57,1.57,0,0,0,1.16.43,2.05,2.05,0,0,0,1-.25,4.55,4.55,0,0,0,1-.82h.12l.64.84v.1a7.06,7.06,0,0,1-1.7,1.25A4,4,0,0,1,441.62,19.6Z"/><path class="cls-1" d="M447.37,19.44l-.07-.08.07-.57.08-.07h0a.59.59,0,0,0,.32-.09.83.83,0,0,0,.24-.21,2,2,0,0,0,.15-.32,2.48,2.48,0,0,0,.08-.52c0-.23,0-.55,0-1V9c0-.56,0-1,0-1.24a5.35,5.35,0,0,0-.06-.66,1.37,1.37,0,0,0-.13-.43.72.72,0,0,0-.26-.26,2.26,2.26,0,0,0-.55-.17V5.58l2.5-.13h1.13l.07.07L450.89,11a6.92,6.92,0,0,1,1.5-1.11,2.87,2.87,0,0,1,1.32-.33,2.62,2.62,0,0,1,1.54.39,2.27,2.27,0,0,1,.79,1.14,6.15,6.15,0,0,1,.25,1.93v3.57c0,.28,0,.55,0,.8a3.82,3.82,0,0,0,.07.6,1.42,1.42,0,0,0,.15.37.87.87,0,0,0,.26.24,2,2,0,0,0,.42.16v.59l-.08.06h-4.31l-.07-.08.07-.57a1.13,1.13,0,0,0,.58-.31,1.31,1.31,0,0,0,.21-.56,9.4,9.4,0,0,0,.06-1.29V14.08a14.71,14.71,0,0,0-.06-1.52,2.91,2.91,0,0,0-.19-.84,1.08,1.08,0,0,0-.36-.44,1,1,0,0,0-.58-.15,1.41,1.41,0,0,0-.72.23,1.93,1.93,0,0,0-.62.62,1.65,1.65,0,0,0-.25.85v3.79c0,.36,0,.64,0,.84a3.92,3.92,0,0,0,0,.46,2.46,2.46,0,0,0,.07.29,1.09,1.09,0,0,0,.14.23.63.63,0,0,0,.23.19,1.51,1.51,0,0,0,.4.16v.66l-.08.06Z"/><path class="cls-1" d="M459.83,19.44l-.08-.08.07-.57a1.24,1.24,0,0,0,.61-.33,1.21,1.21,0,0,0,.23-.55,9.41,9.41,0,0,0,0-1.28V12.08a5.5,5.5,0,0,0,0-.77,1,1,0,0,0-.15-.46.66.66,0,0,0-.3-.27,2.27,2.27,0,0,0-.5-.16V9.74l.08-.06h3.54l.07.07-.07,6.88c0,.36,0,.64,0,.84a3.92,3.92,0,0,0,0,.46,2.06,2.06,0,0,0,.07.29,1.71,1.71,0,0,0,.13.23.78.78,0,0,0,.24.19,1.51,1.51,0,0,0,.4.16v.59l-.07.06Zm.95-11.19-.07-.08.07-2.32.07-.07,2.41.07.07.07-.07,2.26-.07.07Z"/><path class="cls-1" d="M466.94,19.44l-.07-.08.07-.57a.95.95,0,0,0,.82-.88,9,9,0,0,0,.06-1.28v-4c0-.48,0-.84,0-1.07a1.83,1.83,0,0,0-.11-.55.74.74,0,0,0-.26-.34,1.58,1.58,0,0,0-.61-.23V9.74l.07-.06h3.47l.07.08-.13,1.33.13,0V11c.39-.33.69-.59,1-.78a3.7,3.7,0,0,1,.89-.49,2.67,2.67,0,0,1,1-.18,3,3,0,0,1,1.23.23,2,2,0,0,1,.79.67,2.8,2.8,0,0,1,.43,1.07,7.27,7.27,0,0,1,.13,1.48v3.58c0,.28,0,.55,0,.8a4,4,0,0,0,.06.6,1.42,1.42,0,0,0,.15.37.91.91,0,0,0,.27.24,1.75,1.75,0,0,0,.41.16v.59l-.07.06h-4.32l-.07-.08.07-.57a1.07,1.07,0,0,0,.58-.32,1.26,1.26,0,0,0,.22-.56,9.12,9.12,0,0,0,.06-1.28V14q0-.69,0-1.14a5.36,5.36,0,0,0-.09-.73,1.85,1.85,0,0,0-.16-.47,1.25,1.25,0,0,0-.23-.31.79.79,0,0,0-.29-.18,1.15,1.15,0,0,0-.41-.06,1.41,1.41,0,0,0-.71.23,2,2,0,0,0-.62.63,1.6,1.6,0,0,0-.25.87v3.76a11.7,11.7,0,0,0,.05,1.29,1.15,1.15,0,0,0,.22.56,1.06,1.06,0,0,0,.59.32v.66l-.07.06Z"/><path class="cls-1" d="M483.43,23.82a14.74,14.74,0,0,1-1.85-.1,4.92,4.92,0,0,1-1.42-.35,2.18,2.18,0,0,1-.91-.71,2,2,0,0,1-.32-1.15,1.78,1.78,0,0,1,.33-1,2.65,2.65,0,0,1,.91-.8,1.74,1.74,0,0,1-.55-.67,2.2,2.2,0,0,1-.17-.94,2.1,2.1,0,0,1,.17-.86,2.94,2.94,0,0,1,.47-.73,8.1,8.1,0,0,1,.77-.72,2.68,2.68,0,0,1-1.07-1.12,3.54,3.54,0,0,1-.36-1.64,3.74,3.74,0,0,1,.3-1.56,2.83,2.83,0,0,1,.83-1.06,3.54,3.54,0,0,1,1.25-.6,5.88,5.88,0,0,1,1.55-.19,5,5,0,0,1,.81.05l.69.1h3.25l.08.08L488.12,11l-.08.06-1.47-.17,0,.12a1.75,1.75,0,0,1,.43.73,3.47,3.47,0,0,1,.17,1.14,3.35,3.35,0,0,1-1,2.58,4,4,0,0,1-2.8.88,5,5,0,0,1-1.47-.18,1.36,1.36,0,0,0-.44.94.61.61,0,0,0,.49.69,3,3,0,0,0,.77.08H485a3.41,3.41,0,0,1,2.25.64,2.46,2.46,0,0,1,.76,2,3,3,0,0,1-.55,1.8,3.43,3.43,0,0,1-1.57,1.15A6.79,6.79,0,0,1,483.43,23.82Zm-1.73-3.75a2.06,2.06,0,0,0-.49.59,1.64,1.64,0,0,0-.17.74,1.12,1.12,0,0,0,.57,1,3.63,3.63,0,0,0,1.78.34,3,3,0,0,0,1.72-.41,1.34,1.34,0,0,0,.59-1.15,1.41,1.41,0,0,0-.11-.57.89.89,0,0,0-.42-.39,2.13,2.13,0,0,0-.89-.15h-1.55A9.31,9.31,0,0,1,481.7,20.07Zm1.63-9.47a1.06,1.06,0,0,0-1,.56,3.62,3.62,0,0,0-.32,1.72,4.05,4.05,0,0,0,.32,1.83,1.06,1.06,0,0,0,1,.6,1,1,0,0,0,.95-.55,3.43,3.43,0,0,0,.33-1.7,4.2,4.2,0,0,0-.32-1.83A1.06,1.06,0,0,0,483.33,10.6Z"/><path class="cls-1" d="M496.8,19.44l-.07-.08.07-.57.08-.07h0a.6.6,0,0,0,.33-.09.67.67,0,0,0,.23-.21,1.06,1.06,0,0,0,.15-.32,2,2,0,0,0,.08-.52c0-.23,0-.55,0-1V9c0-.56,0-1,0-1.24a5.35,5.35,0,0,0-.06-.66,1.15,1.15,0,0,0-.13-.43.68.68,0,0,0-.27-.26,2,2,0,0,0-.54-.17V5.58l2.51-.13h1.12l.08.07-.07,11.1a11.48,11.48,0,0,0,.05,1.28,1.2,1.2,0,0,0,.22.55,1.27,1.27,0,0,0,.63.34v.59l-.08.06Z"/><path class="cls-1" d="M503.93,19.44l-.08-.08.07-.57a1.16,1.16,0,0,0,.61-.33,1.21,1.21,0,0,0,.23-.55,8.93,8.93,0,0,0,.06-1.28V12.08a7.64,7.64,0,0,0,0-.77,1.08,1.08,0,0,0-.16-.46.66.66,0,0,0-.3-.27,2.27,2.27,0,0,0-.5-.16V9.74l.07-.06h3.54l.07.07-.07,6.88c0,.36,0,.64,0,.84a3.92,3.92,0,0,0,0,.46,1.23,1.23,0,0,0,.08.29.76.76,0,0,0,.13.23.63.63,0,0,0,.23.19,1.51,1.51,0,0,0,.4.16v.59l-.07.06Zm.95-11.19-.07-.08.07-2.32.08-.07,2.4.07.07.07-.07,2.26-.07.07Z"/><path class="cls-1" d="M514,19.54l-2.39-7.43a6.62,6.62,0,0,0-.39-1.06,1.46,1.46,0,0,0-.34-.44,1,1,0,0,0-.45-.21V9.74l.08-.06,4.43.06.08.09-.07.57-.09.07a.85.85,0,0,0-.54.19.68.68,0,0,0-.2.53,4.18,4.18,0,0,0,.24,1.21l1.3,4.27,1.42-3.74c.12-.31.21-.59.28-.82a3.54,3.54,0,0,0,.09-.7,1.09,1.09,0,0,0-.22-.68,1,1,0,0,0-.61-.33l-.06-.08.06-.58.07-.06,3.44.06.07.09-.06.58-.09.07a.6.6,0,0,0-.34.14,1.9,1.9,0,0,0-.29.33,4.31,4.31,0,0,0-.34.61q-.2.4-.54,1.23l-2.8,6.71-.07,0Z"/><path class="cls-1" d="M526.41,19.6a3.93,3.93,0,0,1-3.16-1.25,5.56,5.56,0,0,1-1.06-3.7,6.36,6.36,0,0,1,.54-2.73,3.94,3.94,0,0,1,1.55-1.74,4.56,4.56,0,0,1,2.33-.59,4.77,4.77,0,0,1,1.44.2,3.52,3.52,0,0,1,1.07.57,3.31,3.31,0,0,1,.73.89,5.21,5.21,0,0,1,.51,1.41,9.16,9.16,0,0,1,.19,2l-.07.08-5.58-.07a4.3,4.3,0,0,0,.51,2.59,2,2,0,0,0,1.74.84,2.79,2.79,0,0,0,1.24-.28,4.72,4.72,0,0,0,1.14-.92h.11l.68.8v.1a7.1,7.1,0,0,1-1.82,1.4A4.75,4.75,0,0,1,526.41,19.6Zm.06-9a1.24,1.24,0,0,0-1.1.76,5.43,5.43,0,0,0-.49,2.2h2.92a5.14,5.14,0,0,0-.29-2.22A1.1,1.1,0,0,0,526.47,10.61Z"/><path class="cls-1" d="M536.51,19.6a13.46,13.46,0,0,1-3.31-.46V16.8l.08-.07,1.14.07a2.62,2.62,0,0,0,.68,1.33,1.73,1.73,0,0,0,1.25.45,1.42,1.42,0,0,0,1-.34,1.25,1.25,0,0,0,.35-1,1.45,1.45,0,0,0-.16-.68,1.64,1.64,0,0,0-.52-.54,9.23,9.23,0,0,0-1.25-.68,7,7,0,0,1-.93-.52,3.69,3.69,0,0,1-.77-.64,2.72,2.72,0,0,1-.51-.8,2.38,2.38,0,0,1-.19-1,2.54,2.54,0,0,1,.47-1.52,2.93,2.93,0,0,1,1.34-1,5.39,5.39,0,0,1,2-.34q.66,0,1.29.06a14.79,14.79,0,0,1,1.64.25v2.28l-.08.08-1.12-.07a3.37,3.37,0,0,0-.46-1,1.25,1.25,0,0,0-.54-.47,1.73,1.73,0,0,0-.71-.14,1.4,1.4,0,0,0-.94.3,1,1,0,0,0-.36.81,1.55,1.55,0,0,0,.13.64,1.72,1.72,0,0,0,.45.51,8.18,8.18,0,0,0,1.25.67,6.38,6.38,0,0,1,1.38.79,3,3,0,0,1,.82,1,2.7,2.7,0,0,1,.28,1.27,3.17,3.17,0,0,1-.27,1.36,2.62,2.62,0,0,1-.76.95,3.33,3.33,0,0,1-1.17.55A5.9,5.9,0,0,1,536.51,19.6Z"/><path class="cls-1" d="M551.31,19.6a2.75,2.75,0,0,1-1.35-.31,2,2,0,0,1-.87-.85,2.62,2.62,0,0,1-.29-1.27,2.57,2.57,0,0,1,1.3-2.26,8.92,8.92,0,0,1,4-1v-.93a4.24,4.24,0,0,0-.19-1.4,1.5,1.5,0,0,0-.49-.69,1.26,1.26,0,0,0-.71-.2,1.58,1.58,0,0,0-.71.16,1.38,1.38,0,0,0-.55.59,3.64,3.64,0,0,0-.36,1.2h-1.71l-.07-.08.07-1.71a7.43,7.43,0,0,1,.78-.37l.6-.25a9.81,9.81,0,0,1,1.09-.35,7.53,7.53,0,0,1,1-.2,6.07,6.07,0,0,1,.85-.06,4.1,4.1,0,0,1,1.75.31,2.07,2.07,0,0,1,1,1,4.71,4.71,0,0,1,.32,1.95v3.8c0,.43,0,.77,0,1a2.16,2.16,0,0,0,.09.52.68.68,0,0,0,.15.27.54.54,0,0,0,.22.17,2.74,2.74,0,0,0,.49.16v.66l-.08.06-3.21-.06-.07-.08.07-1.21-.14-.05a5.31,5.31,0,0,1-1.42,1.14A3.36,3.36,0,0,1,551.31,19.6Zm2.76-4.77a3.55,3.55,0,0,0-2.07.57,1.87,1.87,0,0,0-.67,1.54,1.29,1.29,0,0,0,.31.92,1.12,1.12,0,0,0,.84.31,1.45,1.45,0,0,0,.78-.23,1.73,1.73,0,0,0,.59-.64,1.82,1.82,0,0,0,.22-.85Z"/><path class="cls-1" d="M560.13,19.44l-.08-.08.07-.57a1.17,1.17,0,0,0,.6-.33,1.21,1.21,0,0,0,.23-.55,9,9,0,0,0,.06-1.28v-4c0-.48,0-.84,0-1.07a1.87,1.87,0,0,0-.1-.55.88.88,0,0,0-.26-.34,1.58,1.58,0,0,0-.61-.23V9.74l.08-.06h3.46l.08.08-.13,1.33.13,0a7,7,0,0,1,1-.85,4.13,4.13,0,0,1,.89-.49,2.7,2.7,0,0,1,1-.18,2.9,2.9,0,0,1,1.23.23,2,2,0,0,1,.8.67,3,3,0,0,1,.43,1.07A7.27,7.27,0,0,1,569,13v3.58c0,.28,0,.55,0,.8a2.91,2.91,0,0,0,.07.6,1.42,1.42,0,0,0,.15.37.87.87,0,0,0,.26.24,2,2,0,0,0,.42.16v.59l-.08.06h-4.31l-.07-.08.06-.57a1,1,0,0,0,.58-.32,1.15,1.15,0,0,0,.22-.56,9.12,9.12,0,0,0,.06-1.28V14q0-.69,0-1.14a4.26,4.26,0,0,0-.08-.73,1.85,1.85,0,0,0-.16-.47,1.56,1.56,0,0,0-.23-.31.79.79,0,0,0-.29-.18,1.22,1.22,0,0,0-.41-.06,1.35,1.35,0,0,0-.71.23,1.87,1.87,0,0,0-.62.63,1.61,1.61,0,0,0-.26.87v3.76a9.1,9.1,0,0,0,.06,1.29,1.07,1.07,0,0,0,.22.56,1,1,0,0,0,.59.32v.66l-.07.06Z"/><path class="cls-1" d="M575.39,19.6a2.79,2.79,0,0,1-2.47-1.22,6.74,6.74,0,0,1-.81-3.68,7.05,7.05,0,0,1,.49-2.8,3.71,3.71,0,0,1,1.48-1.73,4.51,4.51,0,0,1,2.36-.58,6.53,6.53,0,0,1,.78.05,8,8,0,0,1,.91.21V9c0-.7,0-1.19,0-1.48a2.29,2.29,0,0,0-.12-.66.69.69,0,0,0-.25-.36,1.78,1.78,0,0,0-.62-.22V5.58l2.51-.13h1.13l.07.07-.07,11.07c0,.49,0,.85,0,1.08a1.83,1.83,0,0,0,.11.55.75.75,0,0,0,.26.33,1.59,1.59,0,0,0,.6.23v.67l-2.46.08h-1l-.08-.08.08-1.33h-.15a4.64,4.64,0,0,1-1.35,1.1A2.86,2.86,0,0,1,575.39,19.6Zm1.23-9a1.27,1.27,0,0,0-1,.44,2.92,2.92,0,0,0-.6,1.25,8.45,8.45,0,0,0-.2,1.94,7.93,7.93,0,0,0,.39,2.87,1.28,1.28,0,0,0,1.2.95,1.57,1.57,0,0,0,.77-.21,1.74,1.74,0,0,0,.64-.65,1.81,1.81,0,0,0,.26-1V13a3.27,3.27,0,0,0-.37-1.76A1.25,1.25,0,0,0,576.62,10.61Z"/><path class="cls-1" d="M593.63,19.6a2.48,2.48,0,0,1-2-.79,3.63,3.63,0,0,1-.66-2.38V11L589.82,11l-.07-.08.07-.6a1.94,1.94,0,0,0,.81-.29,1.24,1.24,0,0,0,.41-.52,3.54,3.54,0,0,0,.23-.85,12.5,12.5,0,0,0,.13-1.32l.08-.07,2.08.06.08.08-.07,2.3,2.57.06.07.08L596.14,11l-.08.07L593.64,11l-.07,4.4a10.67,10.67,0,0,0,.09,1.63,1.57,1.57,0,0,0,.32.77.75.75,0,0,0,.56.25A2.14,2.14,0,0,0,595,18a1.83,1.83,0,0,0,.42-.18,2.31,2.31,0,0,0,.4-.3h.11l.53.75,0,.11a8.24,8.24,0,0,1-1.43.93A3.22,3.22,0,0,1,593.63,19.6Z"/><path class="cls-1" d="M598.44,19.44l-.07-.08.07-.57.08-.07h0a.6.6,0,0,0,.33-.09.67.67,0,0,0,.23-.21,1.06,1.06,0,0,0,.15-.32,2,2,0,0,0,.08-.52c0-.23,0-.55,0-1V9c0-.56,0-1,0-1.24a5.35,5.35,0,0,0-.06-.66,1.36,1.36,0,0,0-.14-.43.65.65,0,0,0-.26-.26,2,2,0,0,0-.55-.17V5.58l2.51-.13H602l.08.07L602,11a6.91,6.91,0,0,1,1.49-1.11,2.91,2.91,0,0,1,1.33-.33,2.56,2.56,0,0,1,1.53.39,2.27,2.27,0,0,1,.8,1.15,6.34,6.34,0,0,1,.25,1.92v3.57c0,.28,0,.55,0,.8a2.91,2.91,0,0,0,.07.6,1.14,1.14,0,0,0,.14.37,1.05,1.05,0,0,0,.27.24,1.75,1.75,0,0,0,.41.16v.59l-.07.06H603.9l-.08-.08.07-.57a1.09,1.09,0,0,0,.58-.31,1.2,1.2,0,0,0,.22-.56,9.4,9.4,0,0,0,.06-1.29V14.08a14.71,14.71,0,0,0-.06-1.52,2.87,2.87,0,0,0-.2-.84,1,1,0,0,0-.36-.44,1,1,0,0,0-.58-.15,1.41,1.41,0,0,0-.71.23,1.84,1.84,0,0,0-.62.62,1.56,1.56,0,0,0-.25.85v3.79c0,.36,0,.64,0,.84s0,.35,0,.46a2.45,2.45,0,0,0,.08.29,1,1,0,0,0,.13.23.63.63,0,0,0,.23.19,1.59,1.59,0,0,0,.41.16v.66l-.07.06Z"/><path class="cls-1" d="M615.18,19.6A4,4,0,0,1,612,18.35a5.61,5.61,0,0,1-1.06-3.7,6.21,6.21,0,0,1,.55-2.73,3.88,3.88,0,0,1,1.55-1.74,4.53,4.53,0,0,1,2.33-.59,4.82,4.82,0,0,1,1.44.2,3.35,3.35,0,0,1,1.06.57,3.31,3.31,0,0,1,.73.89,5.22,5.22,0,0,1,.52,1.41,9.85,9.85,0,0,1,.19,2l-.08.08-5.58-.07a4.22,4.22,0,0,0,.52,2.59,2,2,0,0,0,1.74.84,2.75,2.75,0,0,0,1.23-.28,4.54,4.54,0,0,0,1.14-.92h.11l.68.8v.1a7.28,7.28,0,0,1-1.82,1.4A4.75,4.75,0,0,1,615.18,19.6Zm.05-9a1.24,1.24,0,0,0-1.1.76,5.6,5.6,0,0,0-.49,2.2h2.93a5.28,5.28,0,0,0-.3-2.22A1.08,1.08,0,0,0,615.23,10.61Z"/><path class="cls-1" d="M630.6,19.54l-2.2-7.44a10.16,10.16,0,0,0-.33-1,1.42,1.42,0,0,0-.31-.47.85.85,0,0,0-.46-.24V9.74l.08-.06,4.34.06.07.09-.07.57-.08.07a.78.78,0,0,0-.55.21.72.72,0,0,0-.21.55,2.24,2.24,0,0,0,.07.55c0,.19.1.4.16.62l1.13,4.06,2.06-6.71H636l1.75,6.72,1.17-3.53a6,6,0,0,0,.25-.89,3.1,3.1,0,0,0,.07-.63,1.08,1.08,0,0,0-.21-.68,1,1,0,0,0-.61-.33l-.07-.08.06-.58.08-.06,3.33.06.07.09-.07.58-.08.07a.6.6,0,0,0-.34.13,1.49,1.49,0,0,0-.28.32,5.77,5.77,0,0,0-.29.6c-.12.26-.28.68-.49,1.26l-2.41,6.7-1.82.05-1.71-6.3-2,6.3-.08.05Z"/><path class="cls-1" d="M648.26,19.6a5,5,0,0,1-2.29-.5,3.49,3.49,0,0,1-1.5-1.62,6.41,6.41,0,0,1-.54-2.82,7,7,0,0,1,.33-2.27,4.38,4.38,0,0,1,.93-1.58,3.56,3.56,0,0,1,1.43-.92,5.17,5.17,0,0,1,1.79-.3,4.24,4.24,0,0,1,3.3,1.24,5.41,5.41,0,0,1,1.11,3.66,6.7,6.7,0,0,1-.55,2.85,3.74,3.74,0,0,1-1.58,1.7A5,5,0,0,1,648.26,19.6Zm.11-9a1.26,1.26,0,0,0-1,.42,2.84,2.84,0,0,0-.54,1.26,11.58,11.58,0,0,0-.17,2.16,8.45,8.45,0,0,0,.43,3.1,1.4,1.4,0,0,0,1.29,1,1.21,1.21,0,0,0,.8-.27,1.81,1.81,0,0,0,.51-.76,4.65,4.65,0,0,0,.27-1.19,12.55,12.55,0,0,0,.08-1.57,8.62,8.62,0,0,0-.43-3.14C649.35,11,648.93,10.61,648.37,10.61Z"/><path class="cls-1" d="M655.7,19.44l-.07-.08.07-.57a1.17,1.17,0,0,0,.6-.33,1.2,1.2,0,0,0,.22-.55,9,9,0,0,0,.06-1.28v-4c0-.48,0-.84,0-1.07a1.83,1.83,0,0,0-.11-.55.73.73,0,0,0-.26-.34,1.58,1.58,0,0,0-.61-.23V9.74l.07-.06h3.47l.07.08-.12,1.4.14,0A4.12,4.12,0,0,1,660.54,10a3.13,3.13,0,0,1,1.51-.37,5.27,5.27,0,0,1,1.15.13v2.7l-.08.07-1.56-.07a2.52,2.52,0,0,0-.41-.87.8.8,0,0,0-.66-.3.88.88,0,0,0-.43.13,1.52,1.52,0,0,0-.44.37,1.47,1.47,0,0,0-.29.49,1.72,1.72,0,0,0-.11.5,7,7,0,0,0,0,.76v3.12a9.37,9.37,0,0,0,.06,1.3.94.94,0,0,0,.89.87l.06.08-.05.51-.07.06Z"/><path class="cls-1" d="M665.38,19.44l-.07-.08.06-.57.09-.07h0a.57.57,0,0,0,.32-.09.83.83,0,0,0,.24-.21,1.06,1.06,0,0,0,.15-.32,2,2,0,0,0,.08-.52c0-.23,0-.55,0-1V9c0-.56,0-1,0-1.24s0-.48,0-.66a1.14,1.14,0,0,0-.14-.43.72.72,0,0,0-.26-.26,2.26,2.26,0,0,0-.55-.17V5.58l2.5-.13h1.13l.07.07-.07,11.1A9.12,9.12,0,0,0,669,17.9a1.14,1.14,0,0,0,.22.56,1.26,1.26,0,0,0,.62.33v.59l-.07.06Z"/><path class="cls-1" d="M675.88,19.6a2.8,2.8,0,0,1-2.47-1.22,6.74,6.74,0,0,1-.81-3.68,7.05,7.05,0,0,1,.49-2.8,3.76,3.76,0,0,1,1.48-1.73,4.54,4.54,0,0,1,2.36-.58,6.84,6.84,0,0,1,.79.05,7.92,7.92,0,0,1,.9.21V9c0-.7,0-1.19,0-1.48a2.78,2.78,0,0,0-.11-.66.77.77,0,0,0-.26-.36,1.7,1.7,0,0,0-.62-.22V5.58l2.5-.13h1.13l.07.07-.07,11.07q0,.73,0,1.08a1.87,1.87,0,0,0,.1.55.75.75,0,0,0,.26.33,1.59,1.59,0,0,0,.6.23v.67l-2.46.08h-1l-.08-.08.08-1.33h-.15a4.74,4.74,0,0,1-1.34,1.1A2.9,2.9,0,0,1,675.88,19.6Zm1.23-9a1.24,1.24,0,0,0-1,.44,2.81,2.81,0,0,0-.61,1.25,8.51,8.51,0,0,0-.2,1.94,7.93,7.93,0,0,0,.39,2.87,1.28,1.28,0,0,0,1.2.95,1.57,1.57,0,0,0,.77-.21,1.76,1.76,0,0,0,.65-.65,1.9,1.9,0,0,0,.26-1V13a3.37,3.37,0,0,0-.37-1.76A1.28,1.28,0,0,0,677.11,10.61Z"/><path class="cls-2" d="M33,10.94,27.09,6.6,25.54,7.73,22.46,5.49,24,4.34,18.08,0,16.52,1.14,15,0,9,4.34l1.57,1.15L7.5,7.73,6,6.6,0,10.94l1.55,1.13L0,13.21l6,4.34L7.5,16.42l3.07,2.24L9,19.8,15,24.15,16.52,23l1.56,1.15,6-4.35-1.57-1.14,3.08-2.24,1.55,1.13L33,13.21l-1.55-1.14ZM16.52,14.32l-3.07-2.25,3.07-2.24,3.07,2.24Z"/><path class="cls-1" d="M62.33,2l-1,3.3a11.87,11.87,0,0,0-3.55-.94c-2.43-.25-3.6.82-3.85,1.63a2.68,2.68,0,0,0,1,3.17c3.3,2.3,5.16,3.58,5.57,6,.52,3.05-.31,7.24-6.07,8.2a13.77,13.77,0,0,1-7.83-1l1-3.54a9.48,9.48,0,0,0,2.06,1,6.56,6.56,0,0,0,4.61.11,3.22,3.22,0,0,0,2-2.69,3.86,3.86,0,0,0-1.44-3.1c-2.4-2.05-6.06-2.47-5.44-7.72C49.84,3.6,52.17,1,56.5.9A12.9,12.9,0,0,1,62.33,2Z"/><line class="cls-1" x1="72.47" y1="21.7" x2="72.47" y2="21.69"/><path class="cls-1" d="M72.2,23.06h3.89L79.22,7.19H75.34l-1.68,8.45c-.93,4.31-3.11,5-4.39,4.81a1.93,1.93,0,0,1-1.41-.73C67,18.56,67.55,16,67.55,16l1.74-8.82H65.41l-1.87,9.48s-.59,3.74,1,5.35a4.54,4.54,0,0,0,3.51,1.4c1.94.15,3.34-1.06,4.42-1.72Z"/><path class="cls-1" d="M338.41,7.19h-3.88l-3.14,15.87h3.88L337,14.61c.93-4.31,3.11-5,4.39-4.81a1.89,1.89,0,0,1,1.4.73c.87,1.16.32,3.72.32,3.72l-1.75,8.81h3.89l1.87-9.48s.58-3.74-1-5.35a4.52,4.52,0,0,0-3.5-1.4,5.59,5.59,0,0,0-4.43,1.72Z"/><path class="cls-1" d="M103.86,11.81a4.1,4.1,0,0,0-.5-2.66,4.26,4.26,0,0,0-4.21-2.32,6.55,6.55,0,0,0-3.81,1.69,10.41,10.41,0,0,0-1,1.21A3.64,3.64,0,0,0,93.51,8,3.7,3.7,0,0,0,91.1,6.89a5.49,5.49,0,0,0-5,2.08l.33-1.78H82.5L79.59,23.06h3.88l1.45-7.89s.82-4.23,2.85-5.06a2,2,0,0,1,2.83,1.1,4.4,4.4,0,0,1,0,2.24l-1.76,9.61H92.7l1.54-8.38c.27-1.19,1-4.53,3.24-4.77a2,2,0,0,1,2.38,2.2c0,.56-.18,1.7-.18,1.7L98,23.06h3.88l2-10.86Z"/><path class="cls-1" d="M164.66,11.81a4.14,4.14,0,0,0-.49-2.66A4.29,4.29,0,0,0,160,6.83a6.51,6.51,0,0,0-3.81,1.69,10.41,10.41,0,0,0-1,1.21A3.68,3.68,0,0,0,154.32,8a3.77,3.77,0,0,0-2.42-1.15,5.49,5.49,0,0,0-5,2.08l.33-1.78h-3.88l-2.92,15.87h3.89l1.44-7.89s.82-4.23,2.85-5.06a2,2,0,0,1,2.83,1.1,4.4,4.4,0,0,1,0,2.24l-1.76,9.61h3.88L155,14.68c.26-1.19,1-4.53,3.24-4.77a2,2,0,0,1,2.38,2.2c0,.56-.18,1.7-.18,1.7l-1.7,9.25h3.88l2-10.86Z"/><polygon class="cls-1" points="111.78 7.19 107.89 7.19 104.76 23.06 108.64 23.06 111.78 7.19"/><polygon class="cls-1" points="109.29 0.14 113.17 0.14 112.41 3.97 108.53 3.97 109.29 0.14"/><path class="cls-1" d="M121.09,23.05a6.26,6.26,0,0,1-4.53,0c-2.79-1-2-4.7-2-4.7L116.15,10h-2.91l.56-2.83h2.92l.66-3.33,4.18-1.43-1,4.76h3.32L123.36,10H120l-1.6,8.1c-.27,1.14.1,2.17,1,2.35a4.41,4.41,0,0,0,2.26-.35Z"/><polygon class="cls-1" points="314.01 7.19 310.13 7.19 306.99 23.06 310.87 23.06 314.01 7.19"/><polygon class="cls-1" points="311.52 0.14 315.4 0.14 314.65 3.97 310.77 3.97 311.52 0.14"/><path class="cls-1" d="M304.49,23.05a6.26,6.26,0,0,1-4.53,0c-2.79-1-2-4.7-2-4.7L299.55,10h-2.91l.56-2.83h2.92l.66-3.33L305,2.43l-1,4.76h3.32L306.76,10h-3.32l-1.6,8.1c-.27,1.14.1,2.17,1,2.35a4.41,4.41,0,0,0,2.26-.35Z"/><path class="cls-1" d="M205.58,23c-1.12.2-5.75,1.09-8.31-.12-3.94-1.85-5.51-4.79-5.37-10.26a12,12,0,0,1,4.59-9.49c5.7-3.86,13-.92,13-.92l-1,3.25a8.38,8.38,0,0,0-6.28-1.08c-2.93.56-5.26,2.9-6,6.75-.58,3.06.25,7.37,3.22,8.65a7.53,7.53,0,0,0,6.78-.64Z"/><path class="cls-1" d="M230.07,15.7c.08-.23.28-1,.38-1.3,1.89-5.34,5.6-3.41,5.6-3.41l.87-3.86s-.9-.9-3.16.1a7.13,7.13,0,0,0-2.69,2.71l.55-2.75h-3.88l-2.89,15.87h3.88Z"/><path class="cls-1" d="M275.54,15.7c.09-.23.29-1,.38-1.3,1.89-5.34,5.61-3.41,5.61-3.41l.87-3.86s-.9-.9-3.16.1a7.15,7.15,0,0,0-2.7,2.71l.56-2.75h-3.89l-2.89,15.87h3.89Z"/><path class="cls-1" d="M132.26,6.77c-4.49,0-8.08,3.44-8.68,8.13-.66,5.23,2.13,8.6,6.61,8.6a8.8,8.8,0,0,0,8.84-8C139.63,10.28,136.74,6.77,132.26,6.77ZM135,15.7c-.57,2.88-2.35,5-4.75,4.87-2.22-.15-3.25-2.68-2.64-5.55s2.23-5.39,5-5.15C134.61,10.05,135.64,12.6,135,15.7Z"/><path class="cls-1" d="M175.38,6.77c-4.48,0-8.08,3.44-8.67,8.13-.66,5.23,2.12,8.6,6.61,8.6a8.79,8.79,0,0,0,8.83-8C182.75,10.28,179.86,6.77,175.38,6.77Zm2.77,8.93c-.58,2.88-2.36,5-4.75,4.87-2.23-.15-3.26-2.68-2.65-5.55s2.24-5.39,5-5.15C177.73,10.05,178.77,12.6,178.15,15.7Z"/><path class="cls-1" d="M217.06,6.77c-4.48,0-8.08,3.44-8.68,8.13-.66,5.23,2.13,8.6,6.61,8.6a8.81,8.81,0,0,0,8.85-8C224.43,10.28,221.55,6.77,217.06,6.77Zm2.77,8.93c-.58,2.88-2.35,5-4.75,4.87-2.23-.15-3.26-2.68-2.65-5.55s2.23-5.39,5-5.15C219.41,10.05,220.45,12.6,219.83,15.7Z"/><path class="cls-1" d="M246.8,6.85a5.43,5.43,0,0,0-4.28,2l.31-1.62h-3.89l-4.23,22.47h3.88l1.67-8.88a3.84,3.84,0,0,0,3.82,2.68c5.08.09,7.4-3.58,8-8.3S251.1,6.77,246.8,6.85Zm1.28,8.85c-.5,2.83-2,4.84-4.21,4.71s-3.26-2.3-2.39-5.75c.8-3.21,2.16-4.74,4.11-4.71C248,10,248.62,12.69,248.08,15.7Z"/><path class="cls-1" d="M262.79,6.77c-4.49,0-8.08,3.44-8.68,8.13-.66,5.23,2.13,8.6,6.61,8.6a8.8,8.8,0,0,0,8.84-8C270.16,10.28,267.27,6.77,262.79,6.77Zm2.76,8.93c-.57,2.88-2.35,5-4.75,4.87-2.22-.15-3.26-2.68-2.64-5.55s2.23-5.39,5-5.15C265.14,10.05,266.17,12.6,265.55,15.7Z"/><path class="cls-1" d="M292.2,7c-3.14-1.2-7.85.61-7.85.61l-.5,3.06a14.08,14.08,0,0,1,5.33-1.17c3.59.2,2.4,3.78,2.4,3.78a17.65,17.65,0,0,0-6.65.56c-2.13.83-4,2.15-4,5,0,2.11,1.1,4.52,4.9,4.4a6.39,6.39,0,0,0,4.7-2.89c0-.08-.44,2.67-.44,2.67l3.27,0c.39-2.27,1.65-9.36,1.8-10.62S295.47,8.27,292.2,7ZM289.43,19.5c-1.24,1.15-3.41,1.15-4.28.24s-.43-2.31.6-3.11c2-1.53,5.41-.93,5.41-.93A5.59,5.59,0,0,1,289.43,19.5Z"/><path class="cls-1" d="M323.59,6.77c-4.49,0-8.08,3.44-8.67,8.13-.67,5.23,2.12,8.6,6.6,8.6a8.8,8.8,0,0,0,8.84-8C331,10.28,328.07,6.77,323.59,6.77Zm2.77,8.93c-.58,2.88-2.36,5-4.76,4.87-2.22-.15-3.25-2.68-2.64-5.55s2.23-5.39,5-5.15C325.94,10.05,327,12.6,326.36,15.7Z"/><line class="cls-3" x1="371.7" y1="0.14" x2="371.7" y2="29.66"/></g></g></svg>