<?xml version="1.0" encoding="utf-8"?>
<!-- Generator: Adobe Illustrator 26.0.1, SVG Export Plug-In . SVG Version: 6.00 Build 0)  -->
<svg version="1.1" id="_x31_" xmlns="http://www.w3.org/2000/svg" xmlns:xlink="http://www.w3.org/1999/xlink" x="0px" y="0px"
	 viewBox="0 0 530.8 26.6" style="enable-background:new 0 0 530.8 26.6;" xml:space="preserve">
<style type="text/css">
	.st0{fill:#231815;}
	.st1{fill:#005CA1;}
</style>
<g>
	<g>
		<g>
			<path class="st0" d="M45.7,10.9h-6.2V7h17v3.8h-6.2v15h-4.6V10.9z"/>
			<path class="st0" d="M128.1,10.9h-6.2V7h17v3.8h-6.2v15h-4.6V10.9z"/>
			<path class="st0" d="M68.4,6.3c6,0,10.4,3.9,10.4,10.1c0,6.2-4.4,10.1-10.4,10.1c-6,0-10.4-3.9-10.4-10.1
				C58.1,10.3,62.4,6.3,68.4,6.3z M68.4,23c3.5,0,5.8-2.8,5.8-6.6c0-3.8-2.3-6.6-5.8-6.6c-3.5,0-5.8,2.8-5.8,6.6
				C62.6,20.2,64.9,23,68.4,23z"/>
			<path class="st0" d="M109.9,6.3c6,0,10.4,3.9,10.4,10.1c0,6.2-4.4,10.1-10.4,10.1c-6,0-10.4-3.9-10.4-10.1
				C99.5,10.3,103.9,6.3,109.9,6.3z M109.9,23c3.5,0,5.8-2.8,5.8-6.6c0-3.8-2.3-6.6-5.8-6.6c-3.5,0-5.8,2.8-5.8,6.6
				C104,20.2,106.3,23,109.9,23z"/>
			<polygon class="st0" points="99.6,7 94.6,7 89.1,14.9 83.6,7 78.7,7 87,18.8 87,25.8 91.1,25.8 91.1,18.9 			"/>
			<path class="st0" d="M151,7l7.8,18.8h-4.7l-1.5-3.8h-8.8l-1.6,3.8h-4.6L145.3,7H151z M151.1,18.5l-2.9-7.6l-3.1,7.6H151.1z"/>
		</g>
		<g>
			<path class="st0" d="M218.8,26.6c-6.3,0-9.3-3.5-9.3-7.9V7h4.3v10.6c0,2.8,1.2,5.3,5,5.3c3.8,0,5.2-2.5,5.2-5.3V7h4.3v11.6
				C228.3,23,225.1,26.6,218.8,26.6z"/>
			<path class="st0" d="M175.1,10.9h-6.2V7h17v3.8h-6.2v15h-4.6V10.9z"/>
			<path class="st0" d="M285.9,6.3c6,0,10.4,3.9,10.4,10.1c0,6.2-4.4,10.1-10.4,10.1c-6,0-10.4-3.9-10.4-10.1
				C275.6,10.3,279.9,6.3,285.9,6.3z M285.9,23c3.5,0,5.8-2.8,5.8-6.6c0-3.8-2.3-6.6-5.8-6.6c-3.5,0-5.8,2.8-5.8,6.6
				C280.1,20.2,282.4,23,285.9,23z"/>
			<path class="st0" d="M253.4,7h4.4v7.4h10.2V7h4.4v18.8h-4.4v-7.6h-10.2v7.6h-4.4V7z"/>
			<path class="st0" d="M188.9,12.2c0-4,4.1-5.9,8.2-5.9c3.7,0,7.2,1.6,8.5,5.5h-4.3c-0.5-1.1-1.7-2.1-4.2-2.1
				c-2.6,0-4.1,1.1-4.1,2.5c0,3.4,13,0.7,13,8c0,4.6-4.3,6.4-8.6,6.4c-5.1,0-8.6-2.5-9.1-6.6h4.1c0.3,1,1.5,3.1,5,3.1
				c1.8,0,4.4-0.5,4.4-2.7C201.7,16.4,188.9,19.6,188.9,12.2z"/>
			<path class="st0" d="M232.6,12.2c0-4,4.1-5.9,8.2-5.9c3.7,0,7.2,1.6,8.5,5.5h-4.3c-0.5-1.1-1.7-2.1-4.2-2.1
				c-2.6,0-4.1,1.1-4.1,2.5c0,3.4,13,0.7,13,8c0,4.6-4.3,6.4-8.6,6.4c-5.1,0-8.6-2.5-9.1-6.6h4.1c0.3,1,1.5,3.1,5,3.1
				c1.8,0,4.4-0.5,4.4-2.7C245.3,16.4,232.6,19.6,232.6,12.2z"/>
		</g>
		<g>
			<path class="st0" d="M466,10.9h-6.2V7h17v3.8h-6.2v15H466V10.9z"/>
			<path class="st0" d="M342.7,6.3c6,0,10.4,3.9,10.4,10.1c0,6.2-4.4,10.1-10.4,10.1c-6,0-10.4-3.9-10.4-10.1
				C332.3,10.3,336.7,6.3,342.7,6.3z M342.7,23c3.5,0,5.8-2.8,5.8-6.6c0-3.8-2.3-6.6-5.8-6.6c-3.5,0-5.8,2.8-5.8,6.6
				C336.8,20.2,339.2,23,342.7,23z"/>
			<path class="st0" d="M407.1,6.3c6,0,10.4,3.9,10.4,10.1c0,6.2-4.4,10.1-10.4,10.1c-6,0-10.4-3.9-10.4-10.1
				C396.7,10.3,401.1,6.3,407.1,6.3z M407.1,23c3.5,0,5.8-2.8,5.8-6.6c0-3.8-2.3-6.6-5.8-6.6c-3.5,0-5.8,2.8-5.8,6.6
				C401.2,20.2,403.5,23,407.1,23z"/>
			<path class="st0" d="M499.1,6.3c6,0,10.4,3.9,10.4,10.1c0,6.2-4.4,10.1-10.4,10.1c-6,0-10.4-3.9-10.4-10.1
				C488.7,10.3,493.1,6.3,499.1,6.3z M499.1,23c3.5,0,5.8-2.8,5.8-6.6c0-3.8-2.3-6.6-5.8-6.6c-3.5,0-5.8,2.8-5.8,6.6
				C493.2,20.2,495.5,23,499.1,23z"/>
			<path class="st0" d="M480.4,7h4.6v18.8h-4.6V7z"/>
			<polygon class="st0" points="526.6,7 526.6,19.4 517.2,7 513,7 513,25.8 517.1,25.8 517.1,13.5 526.4,25.8 530.8,25.8 530.8,7 
							"/>
			<path class="st0" d="M453.5,7h-5.8L440,25.8h4.6l1.6-3.8h8.8l1.5,3.8h4.7L453.5,7z M447.6,18.5l3.1-7.6l2.9,7.6H447.6z"/>
			<path class="st0" d="M373.9,25.8l-4.5-7.4c2.4-0.8,3.8-3.2,3.8-5.5c0-3.9-2.9-6-7.3-6h-9.4v18.8h4.4V19h4l4.1,6.9H373.9z
				 M365.2,15.3h-4.3v-4.8h4.7c1.7,0,3.1,0.5,3.1,2.4C368.8,15,366.9,15.3,365.2,15.3z"/>
			<path class="st0" d="M438,25.8l-4.5-7.4c2.4-0.8,3.8-3.2,3.8-5.5c0-3.9-2.9-6-7.3-6h-9.4v18.8h4.4V19h4l4.1,6.9H438z M429.4,15.3
				h-4.3v-4.8h4.7c1.7,0,3.1,0.5,3.1,2.4C432.9,15,431.1,15.3,429.4,15.3z"/>
			<path class="st0" d="M386.7,7h-9.4v18.8h4.4V20h5c5.4,0,7.3-3.3,7.3-6.4C394,9.6,391.1,7,386.7,7z M386,16.3h-4.3v-5.7h4.7
				c1.7,0,3.1,1.1,3.1,3C389.6,15.6,387.7,16.3,386,16.3z"/>
			<path d="M319.5,23c-3.5,0-5.8-2.8-5.8-6.6c0-3.8,2.3-6.6,5.8-6.6c2.6,0,4.6,1.5,5.4,3.9l4.5-0.6c-1.3-4.3-5-6.8-9.9-6.8
				c-6,0-10.4,3.9-10.4,10.1c0,6.2,4.4,10.1,10.4,10.1c4.9,0,8.6-2.6,9.9-6.8l-4.5-0.6C324.1,21.5,322.2,23,319.5,23z"/>
		</g>
	</g>
	<g>
		<path class="st1" d="M30.9,0c-1,0-1.9,0.8-1.9,1.9c0,1,0.8,1.9,1.9,1.9c1,0,1.9-0.8,1.9-1.9C32.8,0.8,31.9,0,30.9,0z"/>
		<path class="st1" d="M1.9,17.9c-1,0-1.9,0.8-1.9,1.9c0,1,0.8,1.9,1.9,1.9c1,0,1.9-0.8,1.9-1.9C3.7,18.8,2.9,17.9,1.9,17.9z"/>
		<polygon class="st1" points="26.7,13.5 30.2,6.6 28.3,6.6 20.1,13.5 		"/>
		<path class="st1" d="M10.8,19.4c-0.5-0.6-0.5-1.6,0.2-2.2L23.6,6.6H7.1l-3.5,6.9h3.3l6.4-5.4c0.6-0.5,1.6-0.5,2.2,0.2
			c0.5,0.6,0.5,1.6-0.2,2.1l-4,3.4L4.9,26.2h8.7l6.4-12.6l-7.1,6C12.3,20.1,11.3,20,10.8,19.4z"/>
	</g>
</g>
</svg>
