<svg xmlns="http://www.w3.org/2000/svg" width="164" height="16" fill="none" preserveAspectRatio="none"><g fill="#E60012" clip-path="url(#a)"><path d="M1.11 15.865V3.443C1.11 2.52.799.123 0 .123h9.049c2.43 0 3.182.473 4.362 2.78l2.453 5.165s1.828-3.545 2.696-5.548C19.428.518 20.308.124 22.286.124h3.645c2.338 0 4.05.697 4.05 3.387v9.023c0 1.396 0 2.465 1.123 3.331h-9.778V8.45l-2.534 5.4c-1.042 1.936-1.1 2.015-3.09 2.015-1.643 0-2.175-.056-2.858-1.238l-3.17-6.02v4.783c0 1.091.867 2.284 1.191 2.475H1.111ZM68.074 4.028c.336.461.972 1.53.891 2.7v5.435c0 2.52 1.944 3.747 5.01 3.747h14.291V4.028H79.83c.498.563.903 1.564.903 2.566v4.264c0 1.418-.868 2.892-2.21 3.342-.567.18-2.094.349-2.094-1.767V6.368c0-.708-.07-2.351-2.419-2.351h-5.948l.012.011ZM118.918 15.887c-3.529 0-4.651-.056-5.82-1.046-1.273-1.069-1.227-3.342-1.227-5.243 0-1.677-.046-3.466 1.076-4.647 1.146-1.204 3.854-1.16 5.89-1.16h6.075c2.638.046 4.964-.168 6.179 1.553.197.293.614 1.306.614 2.656v2.937h-8.042c-2.234 0-3.136-1.294-3.935-2.34 0 0 1.505.753 3.379.37.764-.157.972-.956.59-1.473-.335-.45-1.249-.507-1.249-.507h-2.639v4.467c0 1.103.509 2.037 1.991 2.037 1.481 0 2.302-.923 2.302-1.34h7.626c0 .8-.544 1.914-.984 2.352-1.088 1.07-1.655 1.384-5.728 1.384l-6.086.034-.012-.034ZM155.437 3.96h7.695v8.732c0 2.24.868 3.196.868 3.196h-8.563V6.065c0-1.047-.868-2.093-.868-2.093h.868v-.011ZM161.57 3.105c.88 0 1.574-.697 1.574-1.541s-.694-1.53-1.574-1.53h-4.339c-.868 0-1.574.686-1.574 1.53s.706 1.541 1.574 1.541h4.339ZM153.817 15.91c-.335-.473-.972-1.52-.891-2.69V7.765c0-2.51-1.944-3.736-5.01-3.736h-14.302V15.91h8.435c-.486-.574-.902-1.575-.902-2.566V9.059c0-1.407.856-2.88 2.21-3.32.567-.19 2.094-.36 2.094 1.767v6.053c0 .71.081 2.34 2.419 2.34h5.947v.012ZM53.413 4.006v11.893h8.436c-.255-.428-.822-1.474-.822-2.802V7.122h.613c.752 0 2.21.552.556 4.625l5.693-1.88c0-4.534-1.215-5.85-5.867-5.85h-8.609v-.011ZM43.577 7.145h-1.25c-1.596 0-1.885.191-2.44.686-.88.743-.938 3.196-.151 4.152.937 1.136 2.673.822 3.332 0 .174-.214.498-.833.498-1.451V7.145h.011Zm7.626 6.245c0 .855.474 1.991.902 2.497h-6.92c-1.388 0-1.596-1.372-1.596-2.216-1.307 1.766-3.217 2.34-5.438 2.34-2.06 0-4.826-.371-6.052-2.756-1.227-2.363-1.03-5.998.52-7.595.544-.552 2.141-1.767 5.45-1.767h13.134v9.508-.011ZM98.055 10.543c0 .63.324 1.226.498 1.451.66.822 2.395 1.148 3.332 0 .799-.967.718-3.409-.15-4.163-.544-.472-.845-.675-2.43-.675h-1.25V10.542Zm-.07-6.661h5.567c3.309 0 4.906 1.215 5.45 1.766 1.562 1.587 1.735 5.232.52 7.595-1.226 2.397-3.98 2.757-6.051 2.757-2.222 0-4.131-.563-5.45-2.34 0 .844-.197 2.227-1.597 2.227h-6.017V3.882c0-1.204-.22-3.33-.972-3.882h8.528v3.882h.023Z"/></g><defs><clipPath id="a"><path fill="#fff" d="M0 0h164v16H0z"/></clipPath></defs></svg> 