<svg xmlns="http://www.w3.org/2000/svg" width="420.083" height="50" viewBox="0 0 420.083 50">
  <g id="グループ_62620" data-name="グループ 62620" transform="translate(-834 -38.229)">
    <g id="グループ_61381" data-name="グループ 61381" transform="translate(834 38.229)">
      <path id="パス_102733" data-name="パス 102733" d="M7.816,55.416,0,68.954l15.637.009,7.824-13.547Z" transform="translate(0 -28.327)" fill="red"/>
      <path id="パス_102734" data-name="パス 102734" d="M48,55.416H63.65l7.812,13.547H55.813Z" transform="translate(-24.536 -28.327)" fill="red"/>
      <path id="パス_102735" data-name="パス 102735" d="M39.825,0,32,13.55,39.82,27.088l7.832-13.547Z" transform="translate(-16.358 0)" fill="red"/>
    </g>
    <g id="グループ_62616" data-name="グループ 62616" transform="translate(888.477 49.534)">
      <path id="パス_102861" data-name="パス 102861" d="M64.758,42.257c1.78-.179,2.924-.585,3.429-1.207s.757-2.067.757-4.337V19.229c0-1.551-.248-2.566-.74-3.035s-1.615-.746-3.359-.83v-.8h8.469l9.924,21.481L92.9,14.562h8.546v.8a5.142,5.142,0,0,0-3.09.872q-.695.706-.7,2.993V38.46q0,2.357.7,3.015a5.538,5.538,0,0,0,3.09.872v.714H89.425v-.8c1.734-.137,2.81-.45,3.235-.932s.64-1.634.64-3.459V18.535L82.267,43.061h-.588L70.815,19.545V36.713c0,2.351.342,3.888,1.035,4.6a5.264,5.264,0,0,0,3.018.942v.8H64.758Z" transform="translate(-64.758 -13.717)" fill="#231815"/>
      <path id="パス_102862" data-name="パス 102862" d="M111.83,14.2a2.183,2.183,0,1,1,3.095,3.08A2.175,2.175,0,0,1,111.2,15.74a2.13,2.13,0,0,1,.628-1.542m-3.344,28a5.359,5.359,0,0,0,2.841-.767q.587-.556.588-3.015V28.552a6.366,6.366,0,0,0-.188-1.88,1.28,1.28,0,0,0-1.33-.857,2.6,2.6,0,0,0-.457.042c-.144.025-.573.14-1.274.334v-.666l.907-.294q3.69-1.2,5.147-1.815a2.824,2.824,0,0,1,.76-.252,1.2,1.2,0,0,1,.044.315V38.532q0,2.393.579,3a4.361,4.361,0,0,0,2.626.776v.576H108.486Z" transform="translate(-72.061 -13.547)" fill="#231815"/>
      <path id="パス_102863" data-name="パス 102863" d="M130.515,24.466v1.517H126.24L126.2,38.031a7.982,7.982,0,0,0,.273,2.4,1.941,1.941,0,0,0,1.976,1.444,2.4,2.4,0,0,0,1.315-.35,6.937,6.937,0,0,0,1.272-1.119l.548.463-.459.632a6.723,6.723,0,0,1-2.307,2.08,5.227,5.227,0,0,1-2.347.607,3.3,3.3,0,0,1-3.354-2.2,9.062,9.062,0,0,1-.482-3.311v-12.7H120.35a.6.6,0,0,1-.157-.127.253.253,0,0,1-.053-.167.517.517,0,0,1,.094-.327,7.108,7.108,0,0,1,.6-.536,17.95,17.95,0,0,0,2.078-1.943q.635-.74,2.995-3.936a.692.692,0,0,1,.327.044c.037.027.054.131.054.315v5.161Z" transform="translate(-74.008 -14.449)" fill="#231815"/>
      <path id="パス_102864" data-name="パス 102864" d="M135.483,38.2h.69a10.884,10.884,0,0,0,1.3,3.663,4.773,4.773,0,0,0,4.31,2.349,3.459,3.459,0,0,0,2.489-.875,2.981,2.981,0,0,0,.915-2.258,3.141,3.141,0,0,0-.526-1.709,5.421,5.421,0,0,0-1.855-1.6l-2.36-1.344a13.282,13.282,0,0,1-3.8-2.8,5.224,5.224,0,0,1,.477-7.185,6.094,6.094,0,0,1,4.237-1.514,8.218,8.218,0,0,1,2.458.422,10.926,10.926,0,0,0,1.505.421,1.071,1.071,0,0,0,.55-.1.885.885,0,0,0,.294-.34h.49l.135,5.878h-.644a9.888,9.888,0,0,0-1.142-3.187,4.193,4.193,0,0,0-3.779-2.114,3,3,0,0,0-3.164,3.033q0,1.935,2.9,3.449l2.773,1.5q4.478,2.439,4.477,5.672a5.077,5.077,0,0,1-1.853,4.057,7.206,7.206,0,0,1-4.844,1.574,11.128,11.128,0,0,1-2.845-.422,13.08,13.08,0,0,0-1.882-.421.608.608,0,0,0-.441.183,1.22,1.22,0,0,0-.292.441h-.579Z" transform="translate(-76.563 -15.449)" fill="#231815"/>
      <path id="パス_102865" data-name="パス 102865" d="M157.254,25.414v13.44a5.513,5.513,0,0,0,.4,2.287,2.876,2.876,0,0,0,2.852,1.593,4.833,4.833,0,0,0,2.789-.944,8.206,8.206,0,0,0,1.574-1.449v-11.5a2.643,2.643,0,0,0-.634-2.111,4.816,4.816,0,0,0-2.528-.606v-.713h6.768V40.2a2.892,2.892,0,0,0,.514,1.976,2.906,2.906,0,0,0,2.158.472v.581c-.761.212-1.324.367-1.684.473s-.965.3-1.81.579c-.36.128-1.152.428-2.37.905a.11.11,0,0,1-.125-.095.925.925,0,0,1-.022-.219V41.478a14.226,14.226,0,0,1-2.611,2.531,6.452,6.452,0,0,1-3.784,1.264,5.413,5.413,0,0,1-3.453-1.3q-1.641-1.283-1.641-4.312V28.753a2.788,2.788,0,0,0-.71-2.251,4.164,4.164,0,0,0-1.961-.509v-.579Z" transform="translate(-79.158 -15.529)" fill="#231815"/>
      <path id="パス_102866" data-name="パス 102866" d="M180.726,39.8V29.142a2.682,2.682,0,0,1,1.413-2.308,5.283,5.283,0,0,1,2.885-.91,4.414,4.414,0,0,1,4.235,2.643,12.82,12.82,0,0,1,1.309,5.755,9.651,9.651,0,0,1-1.4,5.307,4.756,4.756,0,0,1-4.307,2.193,8.214,8.214,0,0,1-2.512-.469,2.078,2.078,0,0,1-1.618-1.559m-5.463-23.77q1.226,0,1.561.513a3.273,3.273,0,0,1,.34,1.728V40.514c0,.619.746,1.232,2.245,1.853a11.909,11.909,0,0,0,4.571.925,9.52,9.52,0,0,0,7.45-3.166,11.017,11.017,0,0,0,2.831-7.609,10.172,10.172,0,0,0-2.176-6.75,6.624,6.624,0,0,0-5.249-2.6,6.78,6.78,0,0,0-4.435,1.576,6.607,6.607,0,0,0-1.632,1.917V13.8a.741.741,0,0,0-.044-.256q-.146,0-2.072.666a40.146,40.146,0,0,1-4.341,1.2v.716Z" transform="translate(-83.056 -13.547)" fill="#231815"/>
      <path id="パス_102867" data-name="パス 102867" d="M200.831,14.2a2.181,2.181,0,0,1,3.095-.012A2.187,2.187,0,1,1,200.2,15.74a2.136,2.136,0,0,1,.628-1.544m-3.344,28.116a5.341,5.341,0,0,0,2.839-.769q.588-.554.589-3.016V28.551a6.353,6.353,0,0,0-.189-1.878,1.276,1.276,0,0,0-1.33-.857,2.315,2.315,0,0,0-.455.042c-.147.025-.573.141-1.274.337v-.669l.905-.3q3.69-1.2,5.149-1.813a2.871,2.871,0,0,1,.76-.252,1.262,1.262,0,0,1,.042.316v15.05q0,2.393.581,3a4.351,4.351,0,0,0,2.627.776v.581H197.487Z" transform="translate(-86.926 -13.547)" fill="#231815"/>
      <path id="パス_102868" data-name="パス 102868" d="M211.422,38.2h.69a10.887,10.887,0,0,0,1.3,3.663,4.774,4.774,0,0,0,4.309,2.349,3.469,3.469,0,0,0,2.491-.875,2.98,2.98,0,0,0,.913-2.258,3.141,3.141,0,0,0-.526-1.709,5.446,5.446,0,0,0-1.853-1.6l-2.36-1.344a13.342,13.342,0,0,1-3.8-2.8,5.224,5.224,0,0,1,.477-7.185,6.094,6.094,0,0,1,4.237-1.514,8.191,8.191,0,0,1,2.456.422,10.933,10.933,0,0,0,1.509.421,1.057,1.057,0,0,0,.546-.1.874.874,0,0,0,.3-.34h.492l.132,5.878h-.646a9.776,9.776,0,0,0-1.14-3.187,4.192,4.192,0,0,0-3.777-2.114A3,3,0,0,0,214,28.943q0,1.935,2.9,3.449l2.774,1.5q4.478,2.439,4.476,5.672a5.08,5.08,0,0,1-1.851,4.057,7.209,7.209,0,0,1-4.842,1.574,11.114,11.114,0,0,1-2.846-.422,13.081,13.081,0,0,0-1.882-.421.612.612,0,0,0-.441.183,1.169,1.169,0,0,0-.292.441h-.579Z" transform="translate(-89.246 -15.449)" fill="#231815"/>
      <path id="パス_102869" data-name="パス 102869" d="M227.223,42.312a3.7,3.7,0,0,0,2.264-.851,5.055,5.055,0,0,0,.541-2.934V18.358a3.733,3.733,0,0,0-.306-1.734c-.2-.369-.692-.555-1.473-.555a3.065,3.065,0,0,0-.447.032c-.145.021-.31.044-.491.072v-.759q.932-.274,2.3-.669c.911-.26,1.544-.45,1.9-.561l2.037-.638.042.148v12.94a13.609,13.609,0,0,1,2.336-2.216,6.883,6.883,0,0,1,3.963-1.254,4.572,4.572,0,0,1,4.609,2.853,9.883,9.883,0,0,1,.667,3.957v8.551a5.334,5.334,0,0,0,.516,2.9,3.13,3.13,0,0,0,2.114.88v.581h-9.132v-.581a3.968,3.968,0,0,0,2.37-.861,5.144,5.144,0,0,0,.526-2.924v-8.5a6.931,6.931,0,0,0-.681-3.293,2.652,2.652,0,0,0-2.56-1.259,5.141,5.141,0,0,0-3.159,1.175q-1.528,1.18-1.526,1.534V38.527q0,2.357.548,2.945a4.134,4.134,0,0,0,2.345.84v.581h-9.305Z" transform="translate(-91.893 -13.547)" fill="#231815"/>
      <path id="パス_102870" data-name="パス 102870" d="M255.952,14.2a2.076,2.076,0,0,1,1.553-.65,2.182,2.182,0,1,1,0,4.363,2.156,2.156,0,0,1-2.182-2.17,2.127,2.127,0,0,1,.629-1.544M252.6,42.312a5.336,5.336,0,0,0,2.839-.769q.591-.554.591-3.016V28.551a6.254,6.254,0,0,0-.191-1.878,1.273,1.273,0,0,0-1.328-.857,2.335,2.335,0,0,0-.456.042c-.146.025-.573.141-1.276.337v-.669l.905-.3q3.692-1.2,5.149-1.813a2.89,2.89,0,0,1,.76-.252,1.1,1.1,0,0,1,.044.316v15.05q0,2.393.581,3a4.334,4.334,0,0,0,2.624.776v.581H252.6Z" transform="translate(-96.132 -13.547)" fill="#231815"/>
      <path id="パス_102871" data-name="パス 102871" d="M295.174,14.67a23.632,23.632,0,0,0,2.758.692,2.189,2.189,0,0,0,1.158-.335,1.764,1.764,0,0,0,.759-1.051h.892l.4,9.661h-.982a14.06,14.06,0,0,0-2.253-4.648,8.671,8.671,0,0,0-7.144-3.321,9.079,9.079,0,0,0-7.406,3.573q-2.875,3.576-2.876,9.842,0,5.759,3.02,9.2a9.75,9.75,0,0,0,7.658,3.439,12.3,12.3,0,0,0,6.172-1.6,18.436,18.436,0,0,0,3.558-2.731l.786.8a14.506,14.506,0,0,1-3.554,3.177,14.273,14.273,0,0,1-7.844,2.312q-6.94,0-11.02-4.434A14.549,14.549,0,0,1,275.491,29a14.881,14.881,0,0,1,3.981-10.551,14.241,14.241,0,0,1,10.9-4.476,17.708,17.708,0,0,1,4.8.694" transform="translate(-99.954 -13.619)" fill="#231815"/>
      <path id="パス_102872" data-name="パス 102872" d="M316.824,26.341q3.065,0,4.679,3.224a15.086,15.086,0,0,1,1.617,6.864,11.191,11.191,0,0,1-1.269,5.688,3.988,3.988,0,0,1-3.618,2.168q-3,0-4.691-3.245a14.889,14.889,0,0,1-1.688-6.99q0-4.7,2.095-6.615a4.178,4.178,0,0,1,2.874-1.094m-8.888,8.729a10.452,10.452,0,0,0,2.791,7.453,9.006,9.006,0,0,0,6.821,2.965,8.582,8.582,0,0,0,6.843-3.093,10.845,10.845,0,0,0,2.645-7.281,9.854,9.854,0,0,0-2.727-7.283,9.323,9.323,0,0,0-6.887-2.736,8.847,8.847,0,0,0-6.831,2.893,10.078,10.078,0,0,0-2.655,7.081" transform="translate(-105.373 -15.476)" fill="#231815"/>
      <path id="パス_102873" data-name="パス 102873" d="M329.8,44.078a5.135,5.135,0,0,0,2.572-.675,2.769,2.769,0,0,0,.634-2.176V31.7a7.994,7.994,0,0,0-.388-2.952,1.412,1.412,0,0,0-1.411-.886,3.823,3.823,0,0,0-.55.054c-.232.034-.472.078-.722.134v-.713c.794-.281,1.607-.569,2.445-.863s1.416-.506,1.736-.635q1.046-.4,2.154-.907a.165.165,0,0,1,.179.112,2.266,2.266,0,0,1,.031.463v3.437a16.208,16.208,0,0,1,2.6-2.918,4.019,4.019,0,0,1,2.6-1.047,2.437,2.437,0,0,1,1.748.64,2.266,2.266,0,0,1,.159,3.047,1.639,1.639,0,0,1-1.289.588,2.43,2.43,0,0,1-1.607-.736,2.265,2.265,0,0,0-1.274-.736q-.741,0-1.813,1.188a3.646,3.646,0,0,0-1.071,2.453v9.5a3.109,3.109,0,0,0,.842,2.5,4.26,4.26,0,0,0,2.808.66v.713H329.8Z" transform="translate(-109.025 -15.448)" fill="#231815"/>
      <path id="パス_102874" data-name="パス 102874" d="M353.95,40.894V30.345a2.551,2.551,0,0,1,1.283-1.874,4.643,4.643,0,0,1,2.837-.954,5.028,5.028,0,0,1,3.875,1.909q1.669,1.908,1.668,5.761a10.674,10.674,0,0,1-1.607,6.282,4.672,4.672,0,0,1-3.876,2.257,4.61,4.61,0,0,1-2.552-.7,4.266,4.266,0,0,1-1.628-2.13m-6.633,13.249h10.376v-.759a7.05,7.05,0,0,1-3.045-.646q-.7-.481-.7-2.6V43.264a6.07,6.07,0,0,0,2.484,1.632,6.264,6.264,0,0,0,2.039.3,7.574,7.574,0,0,0,6.322-3.42,12.582,12.582,0,0,0,2.514-7.623,10.1,10.1,0,0,0-2.091-6.746,6.342,6.342,0,0,0-4.989-2.468,7.3,7.3,0,0,0-3.887,1.175,15.3,15.3,0,0,0-2.437,2.058V25.378a.42.42,0,0,0-.052-.217.172.172,0,0,0-.156-.094q-4.111,1.424-4.213,1.444l-1.989.651v.711c.252-.042.441-.069.575-.084a4.02,4.02,0,0,1,.431-.022,1.888,1.888,0,0,1,1.457.446,3.431,3.431,0,0,1,.386,2.02V50.361a3.761,3.761,0,0,1-.533,2.235,3.394,3.394,0,0,1-2.495.835Z" transform="translate(-111.951 -15.449)" fill="#231815"/>
      <path id="パス_102875" data-name="パス 102875" d="M381.812,26.341q3.061,0,4.678,3.224a15.085,15.085,0,0,1,1.617,6.864,11.191,11.191,0,0,1-1.269,5.688,3.985,3.985,0,0,1-3.618,2.168q-3,0-4.69-3.245a14.88,14.88,0,0,1-1.688-6.99q0-4.7,2.1-6.615a4.163,4.163,0,0,1,2.872-1.094m-8.89,8.729a10.452,10.452,0,0,0,2.791,7.453,9.015,9.015,0,0,0,6.824,2.965A8.584,8.584,0,0,0,389.38,42.4a10.857,10.857,0,0,0,2.645-7.281,9.845,9.845,0,0,0-2.73-7.283,9.317,9.317,0,0,0-6.883-2.736,8.855,8.855,0,0,0-6.835,2.893,10.089,10.089,0,0,0-2.655,7.081" transform="translate(-116.227 -15.476)" fill="#231815"/>
      <path id="パス_102876" data-name="パス 102876" d="M394.791,44.078a5.135,5.135,0,0,0,2.572-.675A2.769,2.769,0,0,0,398,41.227V31.7a8.056,8.056,0,0,0-.387-2.952,1.414,1.414,0,0,0-1.411-.886,3.832,3.832,0,0,0-.551.054c-.231.034-.473.078-.723.134v-.713q1.191-.421,2.446-.863t1.738-.635q1.046-.4,2.154-.907a.162.162,0,0,1,.177.112,2.148,2.148,0,0,1,.031.463v3.437a16.115,16.115,0,0,1,2.6-2.918,4.011,4.011,0,0,1,2.6-1.047,2.435,2.435,0,0,1,1.747.64,2.26,2.26,0,0,1,.16,3.047,1.644,1.644,0,0,1-1.29.588,2.434,2.434,0,0,1-1.607-.736,2.268,2.268,0,0,0-1.272-.736c-.494,0-1.1.4-1.813,1.188a3.643,3.643,0,0,0-1.075,2.453v9.5a3.1,3.1,0,0,0,.845,2.5,4.255,4.255,0,0,0,2.806.66v.713H394.791Z" transform="translate(-119.88 -15.448)" fill="#231815"/>
      <path id="パス_102877" data-name="パス 102877" d="M422.153,39.81a2.282,2.282,0,0,1-1.277,1.972,5.042,5.042,0,0,1-2.665.775,3.063,3.063,0,0,1-1.83-.588,3.2,3.2,0,0,1-1.264-2.808q0-2.37,3.035-4.239a19.143,19.143,0,0,1,4-1.76Zm-10.778.79a4.279,4.279,0,0,0,1.324,3.224,4.356,4.356,0,0,0,3.131,1.27,7.171,7.171,0,0,0,3.635-1.132,19.571,19.571,0,0,0,2.731-2.055,4.156,4.156,0,0,0,.706,2.214,2.334,2.334,0,0,0,2.074.929,4.328,4.328,0,0,0,2.4-.776,6.8,6.8,0,0,0,1.453-1.315V41.8a8.065,8.065,0,0,1-1.1.772,1.813,1.813,0,0,1-.8.157,1.108,1.108,0,0,1-1.138-.888,5.493,5.493,0,0,1-.172-1.68V31.744a9.1,9.1,0,0,0-.778-4.219q-1.451-2.65-5.523-2.647a7.805,7.805,0,0,0-5.329,1.609,4.373,4.373,0,0,0-1.818,3.075,2.125,2.125,0,0,0,.506,1.376,1.76,1.76,0,0,0,1.449.619,2,2,0,0,0,1.054-.269,1.751,1.751,0,0,0,.776-1.636,5.744,5.744,0,0,0-.11-.763,5.164,5.164,0,0,1-.113-.85,1.729,1.729,0,0,1,.973-1.549,4.127,4.127,0,0,1,2.045-.544q2.255,0,2.974,1.4a7.274,7.274,0,0,1,.423,2.97v1.776a45.679,45.679,0,0,0-7.726,3.425,5.976,5.976,0,0,0-3.052,5.08" transform="translate(-122.65 -15.439)" fill="#231815"/>
      <path id="パス_102878" data-name="パス 102878" d="M442,24.466v1.517h-4.275l-.042,12.048a7.98,7.98,0,0,0,.273,2.4,1.942,1.942,0,0,0,1.977,1.444,2.4,2.4,0,0,0,1.315-.35,7.022,7.022,0,0,0,1.274-1.119l.547.463-.463.632a6.684,6.684,0,0,1-2.306,2.08,5.231,5.231,0,0,1-2.345.607,3.3,3.3,0,0,1-3.353-2.2,9.022,9.022,0,0,1-.484-3.311v-12.7h-2.284a.565.565,0,0,1-.157-.127.24.24,0,0,1-.052-.167.507.507,0,0,1,.094-.327,6.553,6.553,0,0,1,.594-.536,17.675,17.675,0,0,0,2.078-1.943q.637-.74,3-3.936a.706.706,0,0,1,.329.044c.033.027.052.131.052.315v5.161Z" transform="translate(-126.033 -14.449)" fill="#231815"/>
      <path id="パス_102879" data-name="パス 102879" d="M448.668,14.2a2.08,2.08,0,0,1,1.554-.65,2.182,2.182,0,1,1,0,4.363,2.159,2.159,0,0,1-2.184-2.17,2.138,2.138,0,0,1,.631-1.544m-3.344,28.116a5.315,5.315,0,0,0,2.835-.769q.594-.554.592-3.016V28.551a6.353,6.353,0,0,0-.189-1.878,1.276,1.276,0,0,0-1.33-.857,2.4,2.4,0,0,0-.457.042c-.144.025-.571.141-1.272.337v-.669l.905-.3q3.687-1.2,5.149-1.813a2.824,2.824,0,0,1,.76-.252,1.343,1.343,0,0,1,.043.316v15.05q0,2.393.581,3a4.336,4.336,0,0,0,2.624.776v.581h-10.24Z" transform="translate(-128.32 -13.547)" fill="#231815"/>
      <path id="パス_102880" data-name="パス 102880" d="M465.475,26.341q3.061,0,4.678,3.224a15.107,15.107,0,0,1,1.617,6.864,11.208,11.208,0,0,1-1.269,5.688,3.989,3.989,0,0,1-3.622,2.168q-2.995,0-4.685-3.245a14.881,14.881,0,0,1-1.69-6.99q0-4.7,2.1-6.615a4.166,4.166,0,0,1,2.872-1.094m-8.89,8.729a10.453,10.453,0,0,0,2.793,7.453,9.009,9.009,0,0,0,6.822,2.965,8.584,8.584,0,0,0,6.843-3.093,10.857,10.857,0,0,0,2.645-7.281,9.845,9.845,0,0,0-2.73-7.283,9.319,9.319,0,0,0-6.885-2.736,8.845,8.845,0,0,0-6.831,2.893,10.083,10.083,0,0,0-2.656,7.081" transform="translate(-130.201 -15.476)" fill="#231815"/>
      <path id="パス_102881" data-name="パス 102881" d="M479.6,44.232a3.774,3.774,0,0,0,2.077-.738,3.525,3.525,0,0,0,.595-2.47V30.383a4.908,4.908,0,0,0-.252-1.874,1.646,1.646,0,0,0-1.63-.79,3.231,3.231,0,0,0-.386.021c-.135.012-.3.032-.494.062v-.757q.858-.251,4.059-1.305l1.964-.654c.1,0,.158.035.181.1a1.128,1.128,0,0,1,.031.288v3.06a21.448,21.448,0,0,1,3.015-2.474,6.3,6.3,0,0,1,3.394-1.023,4.456,4.456,0,0,1,2.6.817q2.258,1.594,2.261,5.686v9.793a3.258,3.258,0,0,0,.6,2.2,2.659,2.659,0,0,0,2.024.7v.581h-9v-.581a3.624,3.624,0,0,0,2.151-.854,4.335,4.335,0,0,0,.611-2.8V31.621a6.032,6.032,0,0,0-.666-2.989,2.554,2.554,0,0,0-2.451-1.186,4.517,4.517,0,0,0-2.491.838,14.1,14.1,0,0,0-1.828,1.6V41.649a2.443,2.443,0,0,0,.675,2.027,3.728,3.728,0,0,0,2.13.556v.581H479.6Z" transform="translate(-134.029 -15.467)" fill="#231815"/>
    </g>
  </g>
</svg>
